<?xml version="1.0" encoding="UTF-8"?>
<svg id="Layer_2" data-name="Layer 2" xmlns="http://www.w3.org/2000/svg" viewBox="0 0 164.15 246.23">
  <defs>
    <style>
      .cls-1 {
        fill: #f9c33d;
        stroke-width: 0px;
      }
    </style>
  </defs>
  <g id="Layer_1-2" data-name="Layer 1">
    <path class="cls-1" d="m164.13,79.96c-.04-1.41-.11-2.81-.21-4.19-.11-1.35-.24-2.68-.4-4.01-.2-1.54-.43-3.08-.71-4.59-.1-.54-.2-1.08-.31-1.63-.16-.81-.34-1.61-.53-2.41-.12-.52-.25-1.05-.39-1.57-.16-.66-.34-1.31-.53-1.95-.19-.65-.38-1.3-.58-1.94-.2-.65-.4-1.29-.62-1.92-.22-.63-.44-1.26-.67-1.9-.23-.63-.47-1.25-.71-1.87-.24-.62-.49-1.24-.76-1.86-.25-.58-.49-1.16-.75-1.72-.08-.17-.15-.34-.23-.49-.2-.43-.4-.86-.6-1.29-.07-.15-.14-.29-.21-.42-.25-.5-.49-1-.75-1.49-.3-.59-.61-1.17-.93-1.76-.31-.59-.64-1.16-.97-1.73-.33-.57-.67-1.14-1.01-1.71-.32-.53-.65-1.05-.97-1.58-.07-.12-.15-.23-.22-.34-.3-.48-.61-.95-.94-1.42-.35-.53-.71-1.05-1.08-1.57-.04-.06-.08-.12-.12-.17-.35-.48-.7-.96-1.05-1.44-.02-.04-.05-.07-.08-.11-.32-.44-.66-.87-.99-1.3-.33-.43-.67-.86-1.02-1.28-.28-.35-.56-.68-.85-1.02-.29-.37-.61-.72-.92-1.08-.31-.36-.62-.72-.95-1.07-.22-.26-.45-.5-.68-.75-.16-.18-.32-.35-.49-.53-.26-.29-.53-.56-.8-.84-.21-.22-.42-.44-.64-.66-.23-.24-.46-.47-.7-.7-.22-.23-.46-.46-.69-.67-.26-.25-.51-.49-.77-.74-.18-.18-.37-.35-.56-.52-.3-.28-.6-.56-.9-.82-.4-.37-.81-.73-1.23-1.08-.29-.26-.59-.51-.89-.76-.26-.22-.53-.44-.8-.66-.26-.22-.53-.43-.8-.64-.72-.58-1.45-1.14-2.2-1.69-.27-.2-.55-.41-.83-.6-.29-.22-.59-.43-.89-.64-.23-.16-.46-.33-.7-.49-.32-.22-.65-.44-.98-.66-.13-.1-.27-.19-.41-.27-.39-.26-.79-.51-1.18-.76-.47-.31-.97-.61-1.46-.9-.39-.25-.79-.48-1.19-.71-.18-.11-.35-.21-.54-.31-.42-.25-.84-.48-1.26-.7-.12-.08-.26-.16-.4-.23-.41-.22-.83-.44-1.25-.66-.48-.26-.97-.5-1.47-.75-.34-.17-.68-.34-1.02-.49-.57-.28-1.13-.54-1.72-.8-.35-.16-.7-.32-1.06-.47-.78-.34-1.58-.67-2.39-.98-.46-.19-.92-.36-1.39-.53-.37-.16-.75-.29-1.14-.42-.53-.2-1.08-.39-1.62-.56-.5-.17-1.02-.34-1.54-.49-.43-.14-.88-.27-1.32-.39-.28-.09-.56-.17-.85-.26-.57-.15-1.14-.31-1.72-.46-.66-.17-1.31-.33-1.98-.48-.48-.11-.96-.21-1.44-.31-1.17-.26-2.36-.48-3.56-.67-.4-.08-.81-.14-1.22-.2-.67-.11-1.35-.2-2.02-.28-.63-.08-1.26-.16-1.91-.21-.69-.07-1.38-.13-2.07-.19-2.08-.16-4.19-.24-6.31-.24C36.74,0,0,36.74,0,82.08v164.15c89.95,0,162.98-72.35,164.13-162.04.02-.7.02-1.41.02-2.12s0-1.41-.02-2.12Zm-82.43,55.48c-29.47,0-53.36-23.89-53.36-53.36s23.89-53.36,53.36-53.36,53.35,23.89,53.35,53.36-23.89,53.36-53.35,53.36Z"/>
  </g>
</svg>